<svg width="340" height="13" viewBox="0 0 340 13" fill="none" xmlns="http://www.w3.org/2000/svg">
<path d="M0.209839 12.4268V1.51619C83.5018 1.13219 166.82 0.750094 250.112 0.367994C271.971 0.271523 293.839 0.175053 315.699 0.0804729H333.008C334.446 0.0804729 338.655 -0.229747 339.383 0.367994C336.854 0.462573 334.322 0.559044 331.791 0.653624V0.941144H327.541V1.22867H324.504C322.48 1.32514 320.456 1.41971 318.431 1.51619V1.80371H315.395C313.372 1.89829 311.346 1.99476 309.322 2.08934V2.37686H304.465V2.66438C302.338 2.75896 300.212 2.85543 298.088 2.9519H294.747V3.23753H290.192V3.52505H285.03V3.81257H280.173V4.10009H275.01V4.38761C272.684 4.48219 270.355 4.57866 268.027 4.67324H264.686V4.96076C261.144 5.05723 257.601 5.15181 254.058 5.24828V5.5358H248.593V5.82333H243.431C241.954 6.21678 239.326 5.66443 237.662 6.10896C234.363 6.99043 229.688 6.10328 226.428 6.97152C222.479 7.0661 218.532 7.16257 214.584 7.25904C213.02 7.67519 210.263 7.07745 208.513 7.54467C204.864 8.51883 199.421 7.43496 195.759 8.40723C193.842 8.91607 190.648 8.19727 188.775 8.69475C186.935 9.18278 184.053 8.54153 182.398 8.98038C180.562 9.46841 177.508 8.79311 175.717 9.2679C171.164 9.36437 166.608 9.45895 162.053 9.55542C160.029 10.0945 156.916 9.45517 154.462 9.84294H154.16V10.1305H147.174C147.174 10.1305 147.148 10.3688 146.568 10.4161C144.274 10.6034 141.41 10.2194 139.583 10.7036H131.082V10.9911H121.668V11.2787H111.649V11.5662H100.717C98.9544 12.0334 95.9919 11.8518 93.7335 11.8518C91.1011 11.9483 88.4706 12.0447 85.8382 12.1393H76.7287V12.4268H62.1542H57.5995C55.8352 12.8941 52.8747 12.7144 50.6163 12.7144H37.8621H29.0567C28.0445 12.8089 27.0323 12.9054 26.0202 13V12.7144C25.4121 12.8089 24.806 12.9054 24.1979 13C20.8533 12.4874 16.2065 12.7144 12.3559 12.7144C8.3072 12.6179 4.25852 12.5233 0.209839 12.4268Z" fill="#34AADD"/>
</svg>
