<svg width="151" height="5" viewBox="0 0 151 5" fill="none" xmlns="http://www.w3.org/2000/svg">
<path d="M0.5 4.77956V0.583148C37.3361 0.435459 74.1836 0.288497 111.02 0.141536C120.687 0.104432 130.358 0.0673275 140.026 0.030951H147.681C148.317 0.030951 150.178 -0.0883646 150.5 0.141536C149.382 0.177912 148.262 0.215017 147.143 0.251393V0.361979H145.263V0.472563H143.92C143.025 0.509667 142.129 0.546044 141.234 0.583148V0.693733H139.891C138.997 0.73011 138.101 0.767214 137.205 0.803591V0.914176H135.057V1.02476C134.117 1.06114 133.177 1.09824 132.237 1.13535H130.76V1.2452H128.745V1.35579H126.462V1.46637H124.314V1.57696H122.031V1.68754C121.002 1.72392 119.972 1.76102 118.943 1.7974H117.465V1.90799C115.899 1.94509 114.332 1.98147 112.765 2.01857V2.12916H110.348V2.23974H108.065C107.412 2.39107 106.25 2.17863 105.514 2.3496C104.055 2.68863 101.987 2.34742 100.545 2.68135C98.7991 2.71773 97.0537 2.75483 95.3074 2.79194C94.6156 2.952 93.3965 2.72209 92.6225 2.9018C91.0089 3.27647 88.6017 2.8596 86.9819 3.23355C86.1344 3.42926 84.7216 3.15279 83.8936 3.34414C83.0797 3.53184 81.8049 3.28521 81.0733 3.45399C80.2612 3.6417 78.9103 3.38197 78.1186 3.56458C76.1051 3.60168 74.0899 3.63806 72.0755 3.67516C71.1802 3.88251 69.8037 3.6366 68.7182 3.78575H68.5847V3.89633H65.4955C65.4955 3.89633 65.484 3.988 65.2274 4.00619C64.2127 4.07822 62.9459 3.93053 62.1382 4.11678H58.3784V4.22736H54.2152V4.33795H49.784V4.44853H44.9494C44.17 4.62823 42.8598 4.55839 41.8611 4.55839C40.6969 4.59549 39.5335 4.6326 38.3693 4.66897H34.3406V4.77956H27.8951H25.8807C25.1004 4.95926 23.7911 4.89014 22.7924 4.89014H17.1518H13.2576C12.8099 4.92652 12.3623 4.96362 11.9147 5V4.89014C11.6457 4.92652 11.3777 4.96362 11.1088 5C9.62962 4.80284 7.57457 4.89014 5.87161 4.89014C4.08108 4.85304 2.29054 4.81666 0.5 4.77956Z" fill="currentColor"/>
</svg>
