<svg width="14" height="12" viewBox="0 0 14 12" fill="none" xmlns="http://www.w3.org/2000/svg">
<path d="M2.35147 8.80462L2.36881 8.6165L2.25742 8.46392C1.6476 7.62859 1.33034 6.66983 1.33034 5.68421C1.33034 2.88275 3.9343 0.5 7.26851 0.5C10.6027 0.5 13.2067 2.88275 13.2067 5.68421C13.2067 8.48567 10.6027 10.8684 7.26851 10.8684C6.41517 10.8684 5.59441 10.7136 4.82506 10.4092L4.60281 10.3212L4.39479 10.439C3.51444 10.9373 2.40085 11.2296 1.69509 11.378C1.80733 11.1691 1.90342 10.9381 1.98531 10.6923C2.16305 10.1587 2.28557 9.5197 2.35147 8.80462Z" stroke="currentColor"/>
</svg>
