<svg width="20" height="14" viewBox="0 0 20 14" fill="none" xmlns="http://www.w3.org/2000/svg">
<path fill-rule="evenodd" clip-rule="evenodd" d="M10 8.49999C9.17305 8.49999 8.50005 7.82699 8.50005 6.99999C8.50005 6.17299 9.17305 5.49999 10 5.49999C10.827 5.49999 11.5 6.17299 11.5 6.99999C11.5 7.82699 10.827 8.49999 10 8.49999ZM10 3.49999C8.07005 3.49999 6.50005 5.06999 6.50005 6.99999C6.50005 8.92999 8.07005 10.5 10 10.5C11.93 10.5 13.5 8.92999 13.5 6.99999C13.5 5.06999 11.93 3.49999 10 3.49999ZM10.2197 11.9976C5.91375 12.0976 3.10475 8.41459 2.17275 6.99559C3.19875 5.39059 5.78275 2.10459 9.78075 2.00259C14.0697 1.89359 16.8948 5.58559 17.8267 7.00459C16.8018 8.60959 14.2168 11.8956 10.2197 11.9976ZM19.8678 6.50259C19.2297 5.39059 15.7057 -0.18341 9.72975 0.00359006C4.20175 0.14359 0.98675 5.01359 0.13275 6.50259C-0.04425 6.81059 -0.04425 7.18959 0.13275 7.49759C0.76175 8.59459 4.16175 13.9996 10.0247 13.9996C10.1067 13.9996 10.1888 13.9986 10.2708 13.9966C15.7977 13.8556 19.0138 8.98659 19.8678 7.49759C20.0438 7.18959 20.0438 6.81059 19.8678 6.50259Z" fill="currentColor"/>
</svg>
