<svg width="24" height="24" viewBox="0 0 24 24" fill="none" xmlns="http://www.w3.org/2000/svg">
<path d="M11.3003 18.963L11.2785 18.9416L11.2554 18.9216C8.63834 16.6505 6.55513 14.8167 5.11652 13.0996C3.68872 11.3955 3 9.92579 3 8.39545C3 5.92467 4.9341 4 7.5 4C8.9082 4 10.3321 4.65744 11.2428 5.71323L12 6.59113L12.7572 5.71323C13.6679 4.65744 15.0918 4 16.5 4C19.0659 4 21 5.92467 21 8.39545C21 9.92579 20.3113 11.3955 18.8835 13.0996C17.4449 14.8167 15.3617 16.6505 12.7446 18.9216L12.7215 18.9416L12.6997 18.963L12 19.6494L11.3003 18.963Z" stroke="currentColor" stroke-width="2"/>
</svg>
