<svg width="36" height="36" viewBox="0 0 36 36" fill="none" xmlns="http://www.w3.org/2000/svg">
<path d="M7.50004 18.8438H28.5C28.966 18.8438 29.3438 18.466 29.3438 18C29.3438 17.534 28.966 17.1562 28.5 17.1562H7.50004C7.03408 17.1562 6.65629 17.534 6.65629 18C6.65629 18.466 7.03408 18.8438 7.50004 18.8438Z" fill="currentColor" fill-opacity="1"/>
<path d="M14.4985 24.4891C14.7448 24.4891 14.989 24.3818 15.1557 24.1751C15.4483 23.8124 15.3914 23.2812 15.0287 22.9886L8.84378 17.9999L15.0287 13.0113C15.3914 12.7187 15.4482 12.1875 15.1557 11.8248C14.8632 11.4621 14.332 11.4053 13.9693 11.6978L6.97016 17.3431C6.7716 17.5033 6.65615 17.7448 6.65615 17.9999C6.65615 18.255 6.7716 18.4964 6.97016 18.6566L13.9693 24.302C14.1252 24.4279 14.3125 24.4891 14.4985 24.4891Z" fill="currentColor" fill-opacity="1"/>
</svg>
