<svg width="36" height="36" viewBox="0 0 36 36" fill="none" xmlns="http://www.w3.org/2000/svg">
<path d="M28.8437 19.6875H7.84375C7.37779 19.6875 7 19.3097 7 18.8438C7 18.3778 7.37779 18 7.84375 18H28.8437C29.3097 18 29.6875 18.3778 29.6875 18.8438C29.6875 19.3097 29.3097 19.6875 28.8437 19.6875Z" fill="currentColor" fill-opacity="0.8"/>
<path d="M21.8443 24.9784C21.5979 24.9784 21.3538 24.871 21.187 24.6643C20.8945 24.3016 20.9514 23.7704 21.3141 23.4779L27.499 18.4892L21.3141 13.5005C20.9514 13.2079 20.8945 12.6767 21.187 12.3141C21.4796 11.9513 22.0108 11.8945 22.3735 12.187L29.3726 17.8324C29.5712 17.9926 29.6866 18.234 29.6866 18.4891C29.6866 18.7442 29.5712 18.9857 29.3726 19.1458L22.3735 24.7912C22.2175 24.9172 22.0303 24.9783 21.8443 24.9784Z" fill="currentColor" fill-opacity="0.8"/>
</svg>
