<svg width="24" height="24" viewBox="0 0 24 24" fill="none" xmlns="http://www.w3.org/2000/svg">
<path fill-rule="evenodd" clip-rule="evenodd" d="M11.9997 13C7.9248 13 4.5539 16.0589 4.06153 20.002C3.9931 20.55 4.44738 21 4.99966 21C5.55195 21 5.99093 20.5489 6.0823 20.0042C6.55805 17.1682 9.0306 15 11.9997 15C14.9687 15 17.4413 17.1682 17.917 20.0042C18.0084 20.5489 18.4474 21 18.9997 21C19.5519 21 20.0062 20.55 19.9378 20.002C19.4454 16.0589 16.0745 13 11.9997 13Z" fill="currentColor"/>
<path d="M12 11C14.206 11 16 9.206 16 7C16 4.794 14.206 3 12 3C9.794 3 8 4.794 8 7C8 9.206 9.794 11 12 11" stroke="currentColor" stroke-width="2"/>
</svg>
