<svg width="24" height="24" viewBox="0 0 24 24" fill="none" xmlns="http://www.w3.org/2000/svg">
<g clip-path="url(#clip0_21990_4397)">
<path d="M21.9272 8.71768L16.1924 7.88576L13.6292 2.71452C13.17 1.79276 11.8393 1.78104 11.3761 2.71452L8.81297 7.88576L3.07822 8.71768C2.04981 8.8661 1.63766 10.1277 2.38345 10.8502L6.53242 14.8732L5.55111 20.5561C5.37447 21.5833 6.46176 22.3527 7.37241 21.8723L12.5027 19.189L17.633 21.8723C18.5436 22.3488 19.6309 21.5833 19.4543 20.5561L18.473 14.8732L22.6219 10.8502C23.3677 10.1277 22.9556 8.8661 21.9272 8.71768ZM16.4515 14.217L17.3817 19.6226L12.5027 17.0721L7.62363 19.6226L8.55391 14.217L4.60513 10.3894L10.0612 9.60039L12.5027 4.67912L14.9442 9.60039L20.4002 10.3894L16.4515 14.217Z" fill="currentColor"/>
<path d="M12.5027 3.0188L15.5739 8.29169L21.5377 9.58314L17.472 14.1334L18.0866 20.2045L12.5027 17.7438L6.91873 20.2045L7.53342 14.1334L3.46765 9.58314L9.43151 8.29169L12.5027 3.0188Z" fill="currentColor"/>
</g>
<defs>
<clipPath id="clip0_21990_4397">
<rect width="24" height="24" fill="currentColor" transform="translate(0.00268555)"/>
</clipPath>
</defs>
</svg>
