<svg width="20" height="20" viewBox="0 0 20 20" fill="none" xmlns="http://www.w3.org/2000/svg">
<path fill-rule="evenodd" clip-rule="evenodd" d="M9 14C9 14.552 9.448 15 10 15C10.552 15 11 14.552 11 14C11 13.448 10.552 13 10 13C9.448 13 9 13.448 9 14ZM9 11C9 11.552 9.448 12 10 12C10.552 12 11 11.552 11 11V6C11 5.448 10.552 5 10 5C9.448 5 9 5.448 9 6V11ZM10 2C5.589 2 2 5.589 2 10C2 14.411 5.589 18 10 18C14.411 18 18 14.411 18 10C18 5.589 14.411 2 10 2ZM10 20C4.477 20 0 15.523 0 10C0 4.477 4.477 0 10 0C15.522 0 20 4.477 20 10C20 15.523 15.522 20 10 20Z" fill="currentColor"/>
</svg>
